<?xml version="1.0" encoding="UTF-8" standalone="no"?>
<!-- Created with Inkscape (http://www.inkscape.org/) -->

<svg
   width="512"
   height="512"
   viewBox="0 0 135.46666 135.46667"
   version="1.1"
   id="svg1"
   xml:space="preserve"
   sodipodi:docname="fav.svg"
   inkscape:export-filename="fav.png"
   inkscape:export-xdpi="96"
   inkscape:export-ydpi="96"
   xmlns:inkscape="http://www.inkscape.org/namespaces/inkscape"
   xmlns:sodipodi="http://sodipodi.sourceforge.net/DTD/sodipodi-0.dtd"
   xmlns="http://www.w3.org/2000/svg"
   xmlns:svg="http://www.w3.org/2000/svg"><sodipodi:namedview
     id="namedview1"
     pagecolor="#ffffff"
     bordercolor="#000000"
     borderopacity="0.25"
     inkscape:showpageshadow="2"
     inkscape:pageopacity="0.0"
     inkscape:pagecheckerboard="0"
     inkscape:deskcolor="#d1d1d1"
     inkscape:document-units="mm" /><defs
     id="defs1" /><g
     inkscape:label="Warstwa 1"
     inkscape:groupmode="layer"
     id="layer1"><g
       id="g36"
       transform="matrix(1.6566523,0,0,1.6566523,-42.272079,-43.205024)"><path
         d="m 86.149264,76.077527 c -0.0094,0.04419 -0.0192,0.08829 -0.02946,0.132292 0.02947,0.002 0.05893,0.0042 0.08837,0.0067 -0.01953,-0.04631 -0.03903,-0.09262 -0.05891,-0.139009 z"
         style="fill:#c2f2a2;stroke-width:3.69649"
         id="path20" /><path
         d="m 86.262952,86.813306 c 0.05065,0.21262 0.0994,0.484545 0.144694,0.765328 -0.04483,-0.285876 -0.09361,-0.550901 -0.144694,-0.765328 z"
         style="fill:#c2f2a2;stroke-width:3.69649"
         id="path32" /><path
         d="m 86.473792,88.140356 c -0.0074,-0.06844 -0.0097,-0.14771 -0.01809,-0.213423 -0.01514,-0.120142 -0.03064,-0.23725 -0.04806,-0.348299 -0.0453,-0.280783 -0.09404,-0.552708 -0.144694,-0.765328 -0.447435,0.05032 -0.902334,0.04848 -1.354956,-0.01654 -2.535202,-0.382849 -4.440131,-2.514067 -4.537191,-5.076176 -0.668882,0.09988 -1.348826,0.100704 -2.017965,0.0026 -3.765199,-0.56 -6.363472,-4.066394 -5.803263,-7.831563 0.237638,-1.568908 1.009367,-3.007771 2.184879,-4.073653 -1.0087,-1.038619 -1.477656,-2.486919 -1.269173,-3.919658 0.323275,-2.161829 2.105044,-3.808869 4.285527,-3.961515 -0.403831,-0.259823 -1.818669,-1.059099 -3.681429,-0.706417 -2.192439,0.415103 -4.285523,4.915464 -2.069641,6.800619 2.215879,1.885152 -3.208071,2.149749 -2.14974,7.904427 1.058331,5.754675 5.258596,6.316929 6.879167,6.978385 1.620569,0.661456 3.208075,0.396879 3.902604,2.315104 0.693691,1.91591 2.476493,3.369286 5.842021,2.91145 z"
         style="fill:#c2f2a2;stroke-width:3.69649"
         id="path31" /><path
         d="m 86.48516,88.139323 c -0.0082,-0.07637 -0.02022,-0.139122 -0.02945,-0.21239 0.0084,0.06571 0.01065,0.144982 0.01809,0.213423 0.0039,-5.29e-4 0.0075,-4.98e-4 0.01137,-10e-4 z"
         style="fill:#c2f2a2;stroke-width:3.69649"
         id="path30" /><path
         d="m 86.48516,88.139323 c -0.0039,5.35e-4 -0.0075,5.04e-4 -0.01137,10e-4 0.01452,0.133579 0.02551,0.273041 0.03566,0.416512 -0.0097,-0.136896 -0.01061,-0.289608 -0.02429,-0.417545 z"
         style="fill:#c2f2a2;stroke-width:3.69649"
         id="path29" /><path
         d="m 68.125557,45.893323 c -2.159604,0.04279 -4.419776,0.805835 -5.820316,3.105237 -1.600624,2.627883 -4.061356,10.391868 -5.18418,12.733072 -1.122824,2.341208 -2.867202,4.44363 -6.259566,8.504908 -3.392362,4.061277 -4.658534,5.375238 -5.614128,7.692553 -0.955594,2.317318 -1.791483,6.306674 -0.883667,9.722921 0.907813,3.416254 1.050961,3.774976 1.910995,6.163965 0.434418,1.206721 1.216481,2.845298 2.301668,4.458643 0.551192,0.418603 1.126842,0.82749 1.750281,1.209745 6.407774,3.928853 7.390114,-2.338505 13.56403,-0.935344 6.173913,1.403163 9.167599,6.922177 17.118852,0.84181 0.368609,-0.281879 0.708294,-0.566943 1.031461,-0.853178 0.101917,-0.09025 0.194397,-0.18073 0.291972,-0.271302 0.214976,-0.199588 0.423981,-0.399733 0.618567,-0.60048 0.09974,-0.102884 0.194306,-0.205955 0.288871,-0.309025 0.175348,-0.191158 0.342574,-0.382163 0.500745,-0.573608 0.08604,-0.104119 0.172083,-0.208555 0.253214,-0.312643 0.156019,-0.200212 0.300666,-0.400268 0.43925,-0.599963 0.06218,-0.08959 0.129302,-0.179312 0.188102,-0.268717 0.378244,-0.575171 0.688359,-1.14552 0.939478,-1.705323 0.0411,-0.09168 0.07566,-0.181797 0.113688,-0.272851 0.07943,-0.190067 0.154982,-0.379405 0.221692,-0.566374 0.0367,-0.102974 0.07032,-0.205052 0.103353,-0.306958 0.05463,-0.168287 0.104673,-0.335167 0.149861,-0.500228 0.02947,-0.107849 0.05908,-0.215617 0.08475,-0.321944 0.03845,-0.158958 0.07081,-0.315004 0.101285,-0.470256 0.02027,-0.103607 0.043,-0.20876 0.05994,-0.310575 0.02611,-0.156284 0.04475,-0.307669 0.06356,-0.459403 0.06195,-0.502244 0.08818,-0.978721 0.08578,-1.421619 -1.55e-4,-0.03165 4.18e-4,-0.06429 0,-0.0956 -0.0031,-0.219117 -0.02143,-0.41264 -0.03566,-0.613917 -0.01014,-0.143471 -0.02114,-0.282933 -0.03566,-0.416512 -3.365528,0.457836 -5.14833,-0.99554 -5.842021,-2.91145 -0.694529,-1.918225 -2.282035,-1.653648 -3.902604,-2.315104 -1.620571,-0.661456 -5.820836,-1.22371 -6.879167,-6.978385 -1.058331,-5.754678 4.365619,-6.019275 2.14974,-7.904427 -2.215882,-1.885155 -0.122798,-6.385516 2.069641,-6.800619 1.86276,-0.352682 3.277598,0.446594 3.681429,0.706417 0,0 5.16e-4,0 5.16e-4,0 -2.059713,-5.243534 -0.908961,-9.061674 -2.449979,-11.648385 -2.006749,-3.368468 -3.846692,-4.204596 -6.259566,-4.371826 -0.301611,-0.0209 -0.607707,-0.02937 -0.916224,-0.02325 z"
         style="fill:#c2f2a2;stroke-width:3.69649"
         id="path25" /><path
         d="m 62.977551,44.066044 c 0.758027,-0.673022 1.620872,-1.998957 1.567863,-4.543392 -0.05026,-2.412844 -2.057413,-5.871938 -3.905188,-8.562785 a 8.753527,4.3014111 55.968997 0 0 -5.737634,-1.778186 8.753527,4.3014111 55.968997 0 0 1.25212,9.613884 8.753527,4.3014111 55.968997 0 0 6.822839,5.270479 z"
         style="fill:#f2d2a2;stroke-width:2.4726"
         id="path14" /><path
         id="path1-0"
         style="fill:#b2eb8c;fill-opacity:1;stroke-width:3.69649"
         inkscape:label="path1"
         d="m 68.119854,45.893974 c -2.15961,0.04279 -4.419772,0.805831 -5.820316,3.105237 -1.600626,2.627889 -4.061354,10.391862 -5.18418,12.733072 -0.577278,1.203687 -1.331242,2.354935 -2.376599,3.731039 2.256712,-1.844204 6.263159,-4.411698 8.902816,-10.587984 3.09949,-7.252201 11.523236,-4.334682 11.843205,-4.220931 -0.05973,-0.123341 -0.11873,-0.247172 -0.189136,-0.365353 -2.006753,-3.368476 -3.846686,-4.204596 -6.259566,-4.371826 -0.301611,-0.0209 -0.607707,-0.02937 -0.916224,-0.02325 z" /><path
         d="m 62.977551,44.066044 a 8.753527,4.3014111 55.968997 0 0 1.653129,-0.329696 8.753527,4.3014111 55.968997 0 0 -1.251603,-9.613883 8.753527,4.3014111 55.968997 0 0 -2.738851,-3.162598 c 1.847775,2.690847 3.854923,6.149941 3.905188,8.562785 0.05301,2.544435 -0.809836,3.87037 -1.567863,4.543392 z"
         style="fill:#eec485;fill-opacity:1;stroke-width:3.69649"
         id="path15" /><path
         d="m 88.676241,85.984416 c -0.454003,1.136457 -1.143347,2.011171 -2.190564,2.154907 h -5.17e-4 c 0.01368,0.127937 0.01461,0.280649 0.02429,0.417545 0.01436,0.203093 0.0327,0.392604 0.03566,0.613917 4.42e-4,0.03166 -1.73e-4,0.06359 0,0.0956 0.0022,0.443599 -0.02339,0.918462 -0.08578,1.421619 -0.01871,0.151665 -0.03756,0.303189 -0.06356,0.459403 -0.01705,0.102049 -0.03956,0.206728 -0.05994,0.310575 -0.0304,0.155347 -0.06289,0.311193 -0.101285,0.470256 -0.02576,0.1065 -0.05518,0.21392 -0.08475,0.321944 -0.04513,0.165187 -0.09526,0.331802 -0.149861,0.500228 -0.03315,0.102108 -0.06654,0.203781 -0.103353,0.306958 -0.06669,0.187144 -0.142231,0.376115 -0.221692,0.566374 -0.03807,0.0911 -0.07254,0.181131 -0.113688,0.272851 -0.25099,0.559819 -0.56111,1.130016 -0.939478,1.705323 -0.05884,0.08947 -0.12588,0.179058 -0.188102,0.268717 -0.138658,0.199781 -0.283113,0.399646 -0.43925,0.599963 -0.08123,0.104244 -0.167067,0.208373 -0.253214,0.312643 -0.158208,0.191456 -0.325332,0.38242 -0.500745,0.573608 -0.09461,0.103141 -0.189082,0.206077 -0.288871,0.309025 -0.194744,0.200876 -0.40338,0.400739 -0.618567,0.60048 -0.09758,0.0906 -0.190049,0.181027 -0.291972,0.271302 -0.323126,0.28615 -0.662875,0.571317 -1.031461,0.853178 -7.951253,6.080368 -10.944939,0.561353 -17.118852,-0.84181 -6.173916,-1.403161 -7.156256,4.864198 -13.56403,0.935344 -0.623439,-0.382255 -1.199089,-0.791142 -1.750281,-1.209745 1.063198,1.580652 2.417283,3.137129 4.029212,4.236949 8.470859,4.61548 8.839265,-0.50146 14.763956,1.40974 5.924693,1.91117 8.027062,1.33791 11.945008,-0.42995 3.917941,-1.76786 10.607076,-9.985884 9.364803,-17.487308 -0.0011,-0.007 -0.002,-0.01316 -0.0031,-0.01964 z"
         style="fill:#d4f6bd;stroke-width:3.69649"
         id="path27" /><path
         d="m 77.746159,61.937305 c -0.855435,-0.350953 -2.384204,-0.669263 -4.302063,0.304891 -2.946646,1.496706 -1.812698,4.384977 -1.648995,4.618839 0.163703,0.23386 1.567235,1.707186 1.403532,2.385384 -0.163703,0.678195 -1.520253,1.169188 -2.175061,2.315104 -0.65481,1.145917 -1.543574,2.478897 -0.350883,6.337598 1.192688,3.858698 5.355553,4.44312 5.940206,4.630208 0.584649,0.187087 3.43787,0.724961 3.74189,1.286227 0.304019,0.561265 0.560823,2.244979 1.730127,3.227193 1.169303,0.982215 2.806317,0.958862 3.765145,0.912089 0.206714,-0.01008 0.405253,-0.04522 0.596346,-0.09457 0,0 0,0 0,0 0.695279,-0.179534 1.271773,-0.587582 1.601969,-1.027844 0.134391,-0.179188 0.360746,-0.522136 0.601514,-0.894002 -0.718723,0.484348 -1.53856,0.77947 -2.386934,0.874882 0,0 0,0 0,0 -0.447435,0.05032 -0.902335,0.04848 -1.354956,-0.01654 -2.5352,-0.382848 -4.440127,-2.514069 -4.537191,-5.076176 -0.668881,0.09986 -1.348826,0.100685 -2.017965,0.0026 -3.765195,-0.559999 -6.363472,-4.066398 -5.803263,-7.831563 0.237638,-1.568907 1.009369,-3.007772 2.184879,-4.073653 -1.008699,-1.038618 -1.477656,-2.48692 -1.269173,-3.919658 0.323042,-2.160272 2.102537,-3.806315 4.280876,-3.960998 z"
         style="fill:#f6e1bd;stroke-width:3.69649"
         id="path35" /><path
         d="m 77.746159,61.937305 c 0.0016,-1.12e-4 0.0031,-4.07e-4 0.0047,-5.17e-4 -0.328371,-0.211239 -1.323819,-0.778167 -2.684591,-0.794267 -0.314024,-0.0037 -0.647629,0.02173 -0.996838,0.08785 -2.192437,0.415103 -4.285521,4.915465 -2.069641,6.800619 2.215876,1.88515 -3.20807,2.149754 -2.14974,7.904427 1.05833,5.754669 5.258597,6.31693 6.879167,6.978385 1.620567,0.661455 3.208076,0.396881 3.902604,2.315104 0.694492,1.918124 2.480304,3.373212 5.853389,2.910417 0,0 0,0 0,0 h 5.17e-4 c 1.047215,-0.143736 1.736563,-1.018452 2.190564,-2.154907 -0.0032,-0.01846 -0.0065,-0.03605 -0.0098,-0.05581 -0.0053,0.0036 -0.01119,0.0062 -0.01654,0.0098 -0.240768,0.371866 -0.467123,0.714814 -0.601514,0.894002 -0.330196,0.440262 -0.90669,0.84831 -1.601969,1.027844 0,0 0,0 0,0 -0.191093,0.04934 -0.389632,0.08449 -0.596346,0.09457 -0.958828,0.04677 -2.595842,0.07013 -3.765145,-0.912089 -1.169304,-0.982214 -1.426108,-2.665928 -1.730127,-3.227193 -0.30402,-0.561266 -3.157241,-1.09914 -3.74189,-1.286227 -0.584653,-0.187088 -4.747518,-0.77151 -5.940206,-4.630208 -1.192691,-3.858701 -0.303927,-5.191681 0.350883,-6.337598 0.654808,-1.145916 2.011358,-1.636909 2.175061,-2.315104 0.163703,-0.678198 -1.239829,-2.151524 -1.403532,-2.385384 -0.163703,-0.233862 -1.297651,-3.122133 1.648995,-4.618839 1.917859,-0.974154 3.446628,-0.655844 4.302063,-0.304891 z"
         style="fill:#edc279;fill-opacity:1;stroke-width:3.69649"
         id="path36" /></g></g></svg>
